<svg xmlns="http://www.w3.org/2000/svg" viewBox="0 0 256 256"><defs><style>.a{fill:#7171f4;}.a,.b,.c,.d,.e{fill-rule:evenodd;}.b{fill:#fdd353;}.c{fill:#fff;}.d{fill:#fde3ca;}.e{fill:#94e6ed;}</style></defs><path class="a" d="M75.792,156.3739q-.972.04-1.987.0409"/><path class="a" d="M76.1068,163.7249c7.5462,1.9344,19.8428,3.2663,37.1582,2.3788,11.2989-.58-15.46-17.6889-15.46-17.6889s-7.3377,7.3383-22.013,7.9591"/><path class="a" d="M121.0781,8a6.0086,6.0086,0,0,0-5.9218,5.0156l-3.68,22.1016a93.7455,93.7455,0,0,0-15.6406,4.1641L81.6172,22.0078a5.9838,5.9838,0,0,0-7.6329-1.3828L62.0157,27.539a5.9793,5.9793,0,0,0-2.6173,7.2891L67.2578,55.82a94.9088,94.9088,0,0,0-11.43,11.4376l-21-7.8594a5.9793,5.9793,0,0,0-7.2891,2.6173L20.625,73.9843a5.9838,5.9838,0,0,0,1.3828,7.6329L39.2813,95.8359a93.7455,93.7455,0,0,0-4.1641,15.6406l-22.1016,3.68A6.0167,6.0167,0,0,0,8,121.086v13.8359a6.0086,6.0086,0,0,0,5.0156,5.9218l22.1016,3.68a93.72,93.72,0,0,0,4.1641,15.64L22.0078,174.3831a5.9982,5.9982,0,0,0-1.3828,7.6331l6.914,11.9676a5.9786,5.9786,0,0,0,7.2891,2.6173l20.9921-7.859a94.9112,94.9112,0,0,0,11.4376,11.43l-7.8594,20.9835a5.998,5.998,0,0,0,2.6173,7.2973l11.9686,6.9136a6.0115,6.0115,0,0,0,7.6329-1.3827l10.3046-12.515c-8-10.6822-12.4821-20.72-12.6953-38.3436,0-.3414.0177-.6829.0234-1.0243a72.8357,72.8357,0,1,1,98.1949-.6477c3.0109,9.79,3.78,23.5909,3.5866,34.5073-.08,4.5079,1.2148,8.1354,3.0081,11.9139a5.9731,5.9731,0,0,0,4.4684,3.3284,4.8523,4.8523,0,0,1,.5235.1171l4.9524-2.8585a5.9787,5.9787,0,0,0,2.6173-7.2889l-7.859-20.9933a94.8127,94.8127,0,0,0,11.43-11.4371l20.9835,7.859a5.9965,5.9965,0,0,0,7.2973-2.6173l6.9136-11.9676a6.0118,6.0118,0,0,0-1.3827-7.6331l-17.2656-14.2194a93.6162,93.6162,0,0,0,4.165-15.64l22.1009-3.68A6.0167,6.0167,0,0,0,248,134.914V121.0781a6.0085,6.0085,0,0,0-5.0159-5.9218l-22.1009-3.68a93.6413,93.6413,0,0,0-4.165-15.6406l17.274-14.2187a5.998,5.998,0,0,0,1.3828-7.6329l-6.9136-11.9686a5.9794,5.9794,0,0,0-7.2889-2.6173l-20.9933,7.8594a94.81,94.81,0,0,0-11.4371-11.43l7.859-20.9844a5.9966,5.9966,0,0,0-2.6173-7.2969l-11.9676-6.914a6.0123,6.0123,0,0,0-7.6331,1.3829L160.1637,39.2813a93.72,93.72,0,0,0-15.64-4.1641l-3.68-22.1016A6.0168,6.0168,0,0,0,134.914,8Z"/><path class="a" d="M180.58,240.95c-5.2572-.6038-6.3-1-8.2018-1.9894a42.6255,42.6255,0,0,1-5.2233-3.1605,5.4737,5.4737,0,0,0-2.4183-1.0229,2.77,2.77,0,0,0-1.71.3979,4.5819,4.5819,0,0,0-2.1742,2.9855c-1.2741,5.4505-1.6508,9.85-8.79,9.84H108.95c-23.5137.01-18.8163-10.3633-2.4439-17.6889.5724-.2342.1941-.7915-.1294-1.0356-11.9551-14.1842-18.6342-24.333-18.8981-46.1475a64.56,64.56,0,0,1,1.075-11.7615v-.0042a63.7371,63.7371,0,0,1,9.0385-22.9094l.0049-.0113a65.2213,65.2213,0,0,1,8.78-10.9191c7.68-7.3562,7.6648-20.62,0-28.0063-.0447,0-.0447,0-.0447-.0449-8.4662-6.0522-14.4438-6.754-18.46-6.1268-.652.1-7.3363,1.1846-9.2922-.8013l-.0168-.0171a4.3911,4.3911,0,0,1-1.0186-3.3439,2.39,2.39,0,0,1,.0937-.6009c3.5606-10.9551,13.1262-17.3847,24.364-18.5786a4.183,4.183,0,0,0,1.9511-.6619,55.8923,55.8923,0,0,1,11.9918-6.6283c6.41-2.0845,13.8925-1.45,21.4539,1.1691a27.3264,27.3264,0,0,1,9.9126,5.6758,25.7644,25.7644,0,0,1,6.3647,8.8147,28.2192,28.2192,0,0,1,1.93,12.1245,36.6738,36.6738,0,0,1-.2906,3.9529c-.4487,3.498-1.3094,6.07-1.9937,9.2287-2.27,10.4644-2.6074,18.6507,5.9965,45.08,1.5746,4.8352,5.7552,13.6282,9.7651,25.456,3.334,9.8343,4.1481,24.374,3.9464,35.7433-.08,4.5093,1.2162,8.1382,3.01,11.9167a5.9829,5.9829,0,0,0,4.4712,3.33C185.1979,235.6543,185.1047,241.47,180.58,240.95Z"/><path class="b" d="M98.2554,86.0348c-8.5063.21-13.5289,9.504-13.83,10.7509a2.1877,2.1877,0,0,0,.0289,1.12,1.6067,1.6067,0,0,0,.77.923,1.4193,1.4193,0,0,0,1.0177.0876c.5834-.1124.9493-.2153,1.5767-.309,2.1547-.3219,8.2884.4273,13.4139,1.8008a1.37,1.37,0,0,0,1.684-.9776c1.0847-4.2067,1.281-11.7264-2.9063-13.1915A4.6566,4.6566,0,0,0,98.2554,86.0348Z"/><path class="c" d="M119.2254,89.9781c-4.0976-.0479-4.0889-6.3427,0-6.3644C123.3711,83.6267,123.3754,89.9389,119.2254,89.9781Z"/><path class="c" d="M109.3759,146.0952c-.9271,1.1457-1.8879,2.49-1.8879,2.49-.6938.9708-1.2354,1.7947-1.5976,2.3605l-.0044.0085a54.6162,54.6162,0,0,0-7.7428,19.6261v.0042a55.3062,55.3062,0,0,0-.9211,10.0755,58.06,58.06,0,0,0,3.2757,19.4991,52.1294,52.1294,0,0,0,8.836,15.224,23.1769,23.1769,0,0,0,11.0164,7.3538c.0293.0085.0587.0184.088.0268,1.2274.3725,16.1638,4.1115,23.195-1.3079,6.2419-4.8113-5.3149-33.4618-8.922-40.6349-2.8031-5.5761-5.7889-11.1126-7.0508-14.5172-2.9118-7.8518-2.75-15.0222-5.14-24.1213a4.31,4.31,0,0,0-2.2741-2.9992C116.5982,137.7577,110.4387,144.78,109.3759,146.0952Z"/><path class="a" d="M36.0557,187.351a1.7429,1.7429,0,0,0-.3551-.1694,6.0467,6.0467,0,0,1-5.0348-5.8045Q29.85,170.77,29.0741,160.1608c-.0416-.5714-.1056-.7167-.7468-.5545a3.6321,3.6321,0,0,1-4.5423-3.2592c-.1638-1.5718-.253-3.1506-.3664-4.7266-.2559-3.557-.6127-7.1112-.7323-10.6722A10.8032,10.8032,0,0,1,30.7512,130.44a7.6845,7.6845,0,0,1,1.79-.3123,1.5535,1.5535,0,0,0,1.4128-.8719,10.835,10.835,0,0,1,15.4891-2.691.7654.7654,0,0,0,.865.13,5.98,5.98,0,0,1,6.8064,1.5959.6006.6006,0,0,0,.795.224,6.0608,6.0608,0,0,1,6.451,9.9361,1.12,1.12,0,0,0-.2712.7306c.0306.9105.15,1.8181.1786,2.7289.0144.4543.1882.5037.5851.47,1.7561-.1537,3.5149-.2779,5.2728-.4063a6.0242,6.0242,0,0,1,6.768,5.68q.85,10.2689,1.55,20.5489a6.0292,6.0292,0,0,1-5.838,6.6356c-1.7373.134-3.474.2864-5.2137.3781-.5288.0282-.6108.2-.5611.6829.114,1.1076.2084,2.2208.228,3.3341a5.9613,5.9613,0,0,1-4.5809,6.0134c-.0432.0112-.0717.0776-.107.1185ZM59.711,179.47c.1211-.9073.4688-1.2515,1.3555-1.3235.9089-.0733,1.8179-.1749,2.7279-.1933.59-.0113.76-.1594.7111-.7957q-1.4057-18.1821-2.76-36.37a1.9664,1.9664,0,0,1-.0168-.2424c.0193-.3942-.1027-.52-.5325-.4183a4.3809,4.3809,0,0,1-1.4425.122c-.5176-.0543-.6033.0891-.563.5727.2163,2.5853.4007,5.1715.5947,7.7592a3.5445,3.5445,0,0,1-1.6405,3.4892.8822.8822,0,0,0-.4709.9651q.7175,9.2445,1.402,18.4889a4.8172,4.8172,0,0,1,.0189.7873,1.1638,1.1638,0,0,1-1.2264,1.0921c-.7189-.0071-1.1385-.5037-1.2108-1.4575q-.5412-7.1238-1.0759-14.2462c-.1174-1.5563-.2273-3.1126-.3619-4.6674-.0162-.1863-.1233-.4684-.2619-.5249a3.9482,3.9482,0,0,1-2.5111-3.8659c-.091-1.76-.2626-3.5161-.44-5.2685a2.08,2.08,0,0,0-1.7172-1.9569,17.6965,17.6965,0,0,0-2.0423-.22,1.2046,1.2046,0,0,0-1.0468.474,7.1022,7.1022,0,0,1-6.08,2.2787,7.2865,7.2865,0,0,1-3.8719-1.5944c-.567-.4388-.6685-.3964-.9684.2187a8.2667,8.2667,0,0,1-5.1676,4.4741c-.4663.1439-.5772.3189-.5412.7887q1.2207,15.9111,2.398,31.8251c.039.5291.2085.601.6894.5643q8.6061-.6752,17.2152-1.3093a1.28,1.28,0,0,1,1.6006,1.0991c-.1307.9312-.4724,1.2557-1.4184,1.3277q-8.5467.6475-17.0943,1.2811c-.49.0367-.5562.1566-.2811.5475a3.6354,3.6354,0,0,0,3.4318,1.6578q5.0621-.3724,10.1231-.7605,7.001-.529,14.0019-1.061a3.5988,3.5988,0,0,0,3.0867-2.1432c.1918-.3838.1991-.5757-.34-.515-.9052.103-1.8171.15-2.7266.2145a1.2713,1.2713,0,0,1-1.5471-1.0935ZM25.62,148.38l.032.4247c.1817,2.4043.3556,4.8085.5489,7.2113a1.2318,1.2318,0,0,0,1.3329,1.2614,1.2778,1.2778,0,0,0,1.1986-1.4067c-.0008-.2215-.0277-.4445-.0444-.666-.2177-2.89-.44-5.7792-.6508-8.6688-.0732-1.006.3141-1.4575,1.31-1.5943a5.9551,5.9551,0,0,0,4.8456-3.6628,2.4876,2.4876,0,0,1,2.5136-1.6453,3.8622,3.8622,0,0,1,2.204.9072,4.7647,4.7647,0,0,0,6.4886-.5257,3.429,3.429,0,0,1,2.7688-1.2527,15.6214,15.6214,0,0,1,1.9965.1229,4.6373,4.6373,0,0,1,4.17,3.6818,20.9875,20.9875,0,0,1,.3273,2.8331c.1084,1.2106.171,2.4254.2856,3.636a1.2019,1.2019,0,0,0,1.5535,1.16c.6092-.1679.9031-.6984.84-1.5534q-.3492-4.6984-.7064-9.395a5.16,5.16,0,0,1-.0286-.667,1.1891,1.1891,0,0,1,1.5738-1.1138c.3106.0877.6127.2115.9272.28a3.7432,3.7432,0,0,0,4.1878-1.9487,3.636,3.636,0,0,0-5.3748-4.5676,1.2517,1.2517,0,0,1-2.0815-.5273,3.6173,3.6173,0,0,0-5.0722-1.5325c-1.0613.6229-1.2725.6044-2.1887-.19a8.4322,8.4322,0,0,0-13.1212,2.5006,1.6656,1.6656,0,0,1-1.6662,1.0314,8.469,8.469,0,0,0-8.6644,9.26C25.2755,143.976,25.4538,146.1771,25.62,148.38Zm49.6319,9.75c-.1052-1.394-.207-2.788-.3162-4.182-.1712-2.1827-.2873-4.3711-.54-6.5425a3.5044,3.5044,0,0,0-3.68-3.0222c-1.942.1086-3.88.2906-5.8209.419-.3357.0212-.4.1482-.3666.4473.0562.5023.1051,1.0088.1113,1.5153.005.3894.1257.5065.5328.47,1.7357-.1538,3.4747-.2724,5.2126-.4022,1.1581-.086,1.6048.2865,1.6924,1.4434q.761,10.0318,1.5132,20.0649c.0838,1.1189-.3112,1.5676-1.4233,1.6536-1.7579.1341-3.5154.2766-5.2748.3881-.3767.0239-.4872.1382-.4328.5079a8.1189,8.1189,0,0,1,.0991,1.3333c-.0093.4882.13.6476.6583.5954,1.6734-.1665,3.3531-.268,5.03-.395,2.5978-.1961,3.9469-1.7581,3.7534-4.3513Q75.63,163.1006,75.2514,158.1291Zm-4.85.35c-.2178-2.8882-.4432-5.7764-.6446-8.6645-.0271-.3881-.1279-.5023-.53-.4642-1.31.1255-2.6238.22-3.9375.2991-.3489.0211-.4236.1312-.397.4712q.6736,8.7218,1.3161,17.4476c.025.34.1157.4388.4636.4064,1.2906-.1185,2.583-.2272,3.8771-.2878.4644-.0226.55-.1609.513-.6067C70.823,164.2145,70.6174,161.346,70.4011,158.479Z"/><path class="b" d="M52.4744,180.0141a1.28,1.28,0,0,0-1.6005-1.0991q-8.6082.6475-17.2152,1.3093c-.4809.0367-.65-.0352-.69-.5643q-1.1737-15.9134-2.3981-31.8251c-.0359-.47.0751-.6448.5413-.7887a8.2657,8.2657,0,0,0,5.1675-4.4741c.3-.6151.4013-.6575.9685-.2187a7.2875,7.2875,0,0,0,3.8722,1.5944,7.1017,7.1017,0,0,0,6.08-2.2787,1.2013,1.2013,0,0,1,1.0468-.474,17.6965,17.6965,0,0,1,2.0423.22,2.08,2.08,0,0,1,1.7173,1.9569c.1773,1.7524.3489,3.509.44,5.2685a3.9484,3.9484,0,0,0,2.5112,3.8659c.1387.0565.2456.3386.2619.5249.1344,1.5548.2445,3.1111.3619,4.6674q.5373,7.1238,1.0757,14.2462c.0725.9538.4921,1.45,1.2108,1.4575a1.1638,1.1638,0,0,0,1.2265-1.0921,4.806,4.806,0,0,0-.0189-.7873q-.6942-9.2445-1.402-18.4889a.8823.8823,0,0,1,.471-.9651,3.5447,3.5447,0,0,0,1.6405-3.4892c-.1941-2.5877-.3785-5.1739-.5948-7.7592-.04-.4836.0455-.627.563-.5727a4.3863,4.3863,0,0,0,1.4425-.122c.43-.1022.5521.0241.5325.4182a1.9637,1.9637,0,0,0,.0168.2424q1.3719,18.1851,2.76,36.37c.0491.6363-.1205.7844-.7111.7957-.91.0184-1.8192.12-2.7279.1933-.8867.072-1.2343.4162-1.3555,1.3221l-2.3877.1792c-.1853-.824-.6642-1.26-1.33-1.2092s-1.0745.5545-1.1325,1.3954ZM36.4031,162.1362q.4181,5.5428.8381,11.0871a4.283,4.283,0,0,0,.1077.7788,1.1554,1.1554,0,0,0,1.2334.8621c.77-.055,1.1843-.618,1.1132-1.5676q-.8463-11.3014-1.7044-22.5989c-.071-.9369-.58-1.466-1.3239-1.4152-.7418.0508-1.1692.6575-1.1138,1.5845.0085.1411.0209.2822.0316.4233Zm12.1452-.8551q-.4206-5.5725-.8414-11.1478c-.0824-1.0878-.5614-1.6451-1.3518-1.5816-.7884.0649-1.1681.6829-1.0855,1.7792q.8376,11.1174,1.6784,22.2349a3.94,3.94,0,0,0,.0893.66,1.164,1.164,0,0,0,1.32.8974c.732-.0889,1.1079-.6406,1.0388-1.5732q-.418-5.6338-.848-11.2692Z"/><path class="d" d="M25.62,148.38c-.166-2.2024-.3445-4.4035-.4957-6.6074a8.4686,8.4686,0,0,1,8.6643-9.26,1.6655,1.6655,0,0,0,1.6661-1.0314A8.4323,8.4323,0,0,1,48.5758,128.98c.9161.7947,1.1273.8129,2.1886.19a3.6176,3.6176,0,0,1,5.0722,1.5327,1.2519,1.2519,0,0,0,2.0816.5273,3.636,3.636,0,0,1,5.3748,4.5676,3.7432,3.7432,0,0,1-4.1878,1.9486c-.3145-.0684-.6166-.1923-.9273-.28a1.1891,1.1891,0,0,0-1.5737,1.1137,5.1226,5.1226,0,0,0,.0286.667q.3526,4.6982.7063,9.3953c.0636.855-.23,1.3855-.84,1.5534a1.2018,1.2018,0,0,1-1.5534-1.16c-.1146-1.2106-.1772-2.4254-.2856-3.636a20.9875,20.9875,0,0,0-.3273-2.8331,4.6375,4.6375,0,0,0-4.17-3.682,15.6946,15.6946,0,0,0-1.9965-.1229,3.4293,3.4293,0,0,0-2.7688,1.2528,4.766,4.766,0,0,1-6.4886.5258,3.8626,3.8626,0,0,0-2.2041-.9073,2.4876,2.4876,0,0,0-2.5135,1.6454,5.9551,5.9551,0,0,1-4.8456,3.6628c-.996.1368-1.3833.5883-1.31,1.5943.21,2.89.4332,5.7792.6509,8.6688.0167.2215.0436.4445.0443.666a1.2776,1.2776,0,0,1-1.1986,1.4067A1.2318,1.2318,0,0,1,26.2,156.0155c-.1933-2.4028-.3673-4.807-.5488-7.2113Z"/><path class="e" d="M75.2514,158.1291q.375,4.9715.7493,9.9429c.1936,2.5932-1.1556,4.1552-3.7535,4.3513-1.6772.127-3.3566.2285-5.03.395-.5281.0522-.6677-.1072-.6584-.5954a8.1413,8.1413,0,0,0-.099-1.3333c-.0545-.37.056-.484.4327-.5065,1.7593-.1129,3.5168-.2554,5.2748-.39,1.1121-.086,1.507-.5347,1.4232-1.6536q-.7511-10.0317-1.5131-20.0649c-.0877-1.1569-.5342-1.5294-1.6924-1.4434-1.738.13-3.4768.2484-5.2126.4036-.4072.0352-.5278-.0819-.5327-.4713-.0064-.5065-.0552-1.0116-.1115-1.5153-.0334-.2991.0308-.4261.3667-.4473,1.941-.1284,3.879-.31,5.821-.419a3.5046,3.5046,0,0,1,3.68,3.0222c.2522,2.1728.3684,4.36.5394,6.5425C75.0444,155.3411,75.1462,156.7351,75.2514,158.1291Z"/><path class="d" d="M52.4744,180.0141l2.3868-.1806c.2958.7647.6629,1.0554,1.2851,1.0215.6505-.0367.9934-.3894,1.177-1.2077l2.3876-.1778a1.2712,1.2712,0,0,0,1.5469,1.0935c.91-.0649,1.8216-.1115,2.7268-.2145.5386-.0607.5314.1312.34.515a3.599,3.599,0,0,1-3.0868,2.1432c-4.6665.364-9.3345.7083-14.002,1.061q-5.0613.381-10.123.7605a3.6326,3.6326,0,0,1-3.4317-1.6578c-.2753-.3909-.2088-.5108.2811-.5475q8.5483-.6243,17.0943-1.2811C52.0021,181.27,52.3438,180.9453,52.4744,180.0141Z"/><path class="a" d="M36.4031,162.1362,35.585,151.29c-.0107-.1411-.0232-.2822-.0316-.4233-.0554-.927.3722-1.5337,1.1138-1.5845.7437-.0508,1.2529.4783,1.3239,1.4152q.8574,11.3,1.7044,22.5989c.0711.95-.3431,1.514-1.1132,1.5676a1.1567,1.1567,0,0,1-1.2334-.8621,4.283,4.283,0,0,1-.1077-.7788Q36.819,167.6783,36.4031,162.1362Z"/><path class="a" d="M48.5483,161.2811q.425,5.6359.848,11.2692c.0691.9326-.3068,1.4843-1.0386,1.5732a1.1639,1.1639,0,0,1-1.32-.8974,3.92,3.92,0,0,1-.09-.66q-.8412-11.1175-1.6784-22.2349c-.0826-1.0963.2972-1.7143,1.0857-1.7792.79-.0635,1.2692.4938,1.3518,1.5816Q48.1289,155.7079,48.5483,161.2811Z"/><path class="a" d="M57.3233,179.6473c-.1836.82-.5265,1.171-1.177,1.2077-.6224.0339-.9893-.2568-1.2851-1.0215.0579-.8409.4676-1.3446,1.1327-1.3954S57.1379,178.8233,57.3233,179.6473Z"/><path class="a" d="M71.0341,161.5591q-1.0675.7005-2.4085,1.4617"/><path class="a" d="M70.51,156.3527c8.2681-1.3164,9.23,1.1231.7157,5.2064"/></svg>