<?xml version="1.0" encoding="UTF-8"?><svg id="Layer_1" xmlns="http://www.w3.org/2000/svg" xmlns:xlink="http://www.w3.org/1999/xlink" viewBox="0 0 1024 1024"><defs><style>.cls-1{fill:rgba(255,255,255,0);}.cls-2,.cls-3{fill:none;}.cls-4{clip-path:url(#clippath);}.cls-5{fill:#fff8c8;}.cls-6{fill:#89d8ff;}.cls-7{fill:#b1a3e3;}.cls-3{stroke:rgba(0,0,0,0);}.cls-3,.cls-8,.cls-9{stroke-linejoin:round;stroke-width:4px;}.cls-8{fill:#ffc4bf;stroke:#ffc4bf;stroke-linecap:round;}.cls-10{clip-path:url(#clippath-1);}.cls-11{clip-path:url(#clippath-3);}.cls-12{clip-path:url(#clippath-2);}.cls-9{fill:#ffd3d0;stroke:#ffd3d0;}</style><clipPath id="clippath"><rect class="cls-2" width="1024" height="1024"/></clipPath><clipPath id="clippath-1"><path class="cls-2" d="M0,0V638.938s32.005-16.688,99-16.688c35.355,120.208,141.417,84.852,261.625,77.781,120.208-7.071,268.712,42.438,403.063-35.343,134.35-77.782,182.837-178.777,162.624-247.5,65.691,0,97.688,23.031,97.688,23.031V0H0Z"/></clipPath><clipPath id="clippath-2"><path class="cls-2" d="M0,0V638.938s32.005-16.688,99-16.688c35.355,120.208,141.417,84.852,261.625,77.781,120.208-7.071,268.712,42.438,403.063-35.343,134.35-77.782,182.837-178.777,162.624-247.5,65.691,0,97.688,23.031,97.688,23.031V0H0Z"/></clipPath><clipPath id="clippath-3"><path class="cls-2" d="M0,0V638.938s32.005-16.688,99-16.688c35.355,120.208,141.417,84.852,261.625,77.781,120.208-7.071,268.712,42.438,403.063-35.343,134.35-77.782,182.837-178.777,162.624-247.5,65.691,0,97.688,23.031,97.688,23.031V0H0Z"/></clipPath></defs><g class="cls-4"><g id="Layer-1"><path class="cls-3" d="M98.9949,622.254c-35.3553-120.208,196.2221-238.649,403.0511-289.914,206.829-51.265,388.909-35.355,424.264,84.853"/><path class="cls-3" d="M98.9949,622.254c-35.3553-120.208,196.2221-238.649,403.0511-289.914,206.829-51.265,388.909-35.355,424.264,84.853"/><path class="cls-7" d="M98.9949,622.254c35.3551,120.2079,141.4211,84.853,261.6291,77.782,120.209-7.071,268.701,42.426,403.051-35.356,134.351-77.781,182.306-176.677,162.635-247.487-33.538-120.728-139.481,11.542-346.31,62.807-206.829,51.265-516.9526,19.94-481.5973,140.148"/><g class="cls-10"><path class="cls-5" d="M722.318,963.799c-21.026-2.417-25.199-4.004-32.803-7.957-7.258-3.711-14.24-7.937-20.894-12.646-2.847-2.125-6.166-3.528-9.674-4.09-2.392-.226-4.793,.332-6.84,1.59-4.446,2.587-7.602,6.92-8.7,11.945-5.097,21.8-6.6,39.397-35.159,39.359h-172.447c-94.055,.038-75.265-41.451-9.775-70.755,2.289-.936,.776-3.165-.518-4.141-47.82-56.739-74.537-97.333-75.592-184.592-.008-15.78,1.432-31.527,4.3-47.044v-.02c5.98-32.606,18.26-63.733,36.153-91.639l.02-.04c10.103-15.779,21.877-30.424,35.119-43.679,30.719-29.425,30.659-82.481,0-112.025q-.179,0-.179-.18c-33.865-24.208-57.775-27.016-73.841-24.507-2.608,.398-29.345,4.738-37.169-3.205l-.067-.068c-4.693-4.804-4.208-11.917-4.074-13.376,.021-.814,.147-1.622,.375-2.404,14.242-43.82,52.504-69.539,97.456-74.314,2.781-.218,5.464-1.128,7.804-2.648,21.892-15.179,40.389-24.048,47.967-26.513,25.64-8.338,55.57-5.8,85.816,4.677,14.668,4.69,28.179,12.427,39.649,22.703,10.897,9.809,19.577,21.829,25.462,35.258,8.286,19.659,7.937,37.483,7.721,48.499-.105,5.287-.493,10.565-1.164,15.811-1.793,13.992-5.237,24.282-7.977,36.915-9.077,41.858-10.431,74.603,23.987,180.321,6.296,19.339,23.022,54.513,39.059,101.822,13.335,39.338,16.592,97.495,15.786,142.977-.319,18.033,4.868,32.552,12.038,47.666,1.744,3.676,7.813,12.348,17.887,13.316,18.748,1.803,18.377,25.064,.274,22.984Z"/></g><g class="cls-12"><path class="cls-6" d="M484.312,32c-11.712,0-21.767,8.4945-23.687,20.0625l-14.719,88.4065c-21.525,3.804-42.462,9.368-62.562,16.656l-56.875-69.0938c-7.44-9.072-20.355-11.4352-30.531-5.5312l-47.876,27.656c-10.175,5.856-14.596,18.212-10.468,29.156l31.437,83.969c-16.517,13.915-31.803,29.234-45.719,45.75l-84-31.437c-10.944-4.128-23.3,.293-29.156,10.468l-27.656,47.876c-5.904,10.175-3.5408,23.091,5.5312,30.531l69.0938,56.875c-7.288,20.1-12.852,41.037-16.656,62.562l-88.4065,14.719c-11.568,1.968-20.0625,11.959-20.0625,23.719v55.344c0,11.712,8.4945,21.767,20.0625,23.687l88.4065,14.719c3.804,21.525,9.368,42.462,16.656,62.562l-69.0938,56.875c-9.072,7.44-11.3872,20.355-5.5312,30.531l27.656,47.876c5.856,10.176,18.213,14.596,29.156,10.468l83.969-31.437c13.915,16.517,29.234,31.803,45.75,45.719l-31.437,83.937c-4.128,10.992,.34,23.331,10.468,29.187l47.876,27.657c10.176,5.856,23.091,3.493,30.531-5.531l41.219-50.063c-32.002-42.731-49.929-82.877-50.782-153.375,0-1.366,.071-2.728,.094-4.094-59.137-53.318-96.312-130.514-96.312-216.406,0-160.886,130.426-291.312,291.312-291.312,160.886-.001,291.313,130.426,291.312,291.312,0,84.524-36.029,160.598-93.531,213.812,12.04,39.165,15.117,94.364,14.344,138.032-.319,18.032,4.861,32.541,12.031,47.656,1.744,3.676,7.801,12.344,17.875,13.312,.775,.075,1.384,.325,2.094,.469l19.813-11.437c10.176-5.856,14.596-18.213,10.468-29.156l-31.437-83.969c16.517-13.915,31.803-29.234,45.719-45.75l83.937,31.437c10.992,4.128,23.331-.34,29.187-10.468l27.657-47.876c5.856-10.176,3.493-23.091-5.531-30.531l-69.063-56.875c7.288-20.1,12.852-41.037,16.656-62.562l88.407-14.719c11.567-1.968,20.062-11.959,20.062-23.719v-55.344c0-11.712-8.495-21.767-20.062-23.687l-88.407-14.719c-3.804-21.525-9.368-42.462-16.656-62.562l69.094-56.875c9.072-7.44,11.387-20.355,5.531-30.531l-27.656-47.876c-5.856-10.176-18.213-14.596-29.156-10.468l-83.969,31.437c-13.915-16.517-29.234-31.803-45.75-45.719l31.437-83.937c4.128-10.992-.34-23.331-10.468-29.187l-47.876-27.6568c-10.176-5.856-23.091-3.4927-30.531,5.5313l-56.875,69.0625c-20.1-7.288-41.037-12.852-62.562-16.656l-14.719-88.4065c-1.968-11.568-11.959-20.0625-23.719-20.0625h-55.344Z"/></g><g class="cls-11"><path class="cls-1" d="M484.312,32c-11.712,0-21.767,8.4945-23.687,20.0625l-14.719,88.4065c-21.525,3.804-42.462,9.368-62.562,16.656l-56.875-69.0938c-7.44-9.072-20.355-11.4352-30.531-5.5312l-47.876,27.656c-10.175,5.856-14.596,18.212-10.468,29.156l31.437,83.969c-16.517,13.915-31.803,29.234-45.719,45.75l-84-31.437c-10.944-4.128-23.3,.293-29.156,10.468l-27.656,47.876c-5.904,10.175-3.5408,23.091,5.5312,30.531l69.0938,56.875c-7.288,20.1-12.852,41.037-16.656,62.562l-88.4065,14.719c-11.568,1.968-20.0625,11.959-20.0625,23.719v55.344c0,11.712,8.4945,21.767,20.0625,23.687l88.4065,14.719c3.804,21.525,9.368,42.462,16.656,62.562l-69.0938,56.875c-9.072,7.44-11.3872,20.355-5.5312,30.531l27.656,47.876c5.856,10.176,18.213,14.596,29.156,10.468l83.969-31.437c13.915,16.517,29.234,31.803,45.75,45.719l-31.437,83.937c-4.128,10.992,.34,23.331,10.468,29.187l47.876,27.657c10.176,5.856,23.091,3.493,30.531-5.531l41.219-50.063c-32.002-42.731-49.929-82.877-50.782-153.375,0-1.366,.071-2.728,.094-4.094-59.137-53.318-96.312-130.514-96.312-216.406,0-160.886,130.426-291.312,291.312-291.312,160.886-.001,291.313,130.426,291.312,291.312,0,84.524-36.029,160.598-93.531,213.812,12.04,39.165,15.117,94.364,14.344,138.032-.319,18.032,4.861,32.541,12.031,47.656,1.744,3.676,7.801,12.344,17.875,13.312,.775,.075,1.384,.325,2.094,.469l19.813-11.437c10.176-5.856,14.596-18.213,10.468-29.156l-31.437-83.969c16.517-13.915,31.803-29.234,45.719-45.75l83.937,31.437c10.992,4.128,23.331-.34,29.187-10.468l27.657-47.876c5.856-10.176,3.493-23.091-5.531-30.531l-69.063-56.875c7.288-20.1,12.852-41.037,16.656-62.562l88.407-14.719c11.567-1.968,20.062-11.959,20.062-23.719v-55.344c0-11.712-8.495-21.767-20.062-23.687l-88.407-14.719c-3.804-21.525-9.368-42.462-16.656-62.562l69.094-56.875c9.072-7.44,11.387-20.355,5.531-30.531l-27.656-47.876c-5.856-10.176-18.213-14.596-29.156-10.468l-83.969,31.437c-13.915-16.517-29.234-31.803-45.75-45.719l31.437-83.937c4.128-10.992-.34-23.331-10.468-29.187l-47.876-27.6568c-10.176-5.856-23.091-3.4927-30.531,5.5313l-56.875,69.0625c-20.1-7.288-41.037-12.852-62.562-16.656l-14.719-88.4065c-1.968-11.568-11.959-20.0625-23.719-20.0625h-55.344Z"/></g><path class="cls-3" d="M922.781,407.11c19.491,49.064,30.205,102.568,30.205,158.575,0,237.332-192.395,429.727-429.7271,429.727-224.019,0-408.002-171.417-427.937-390.24"/><path class="cls-3" d="M926.312,417.188c20.213,68.723-28.274,169.718-162.624,247.5-134.351,77.781-282.855,28.272-403.063,35.343-120.208,7.071-226.27,42.427-261.625-77.781C32.005,622.25,0,638.938,0,638.938v385.062H1024V440.219s-31.997-23.031-97.688-23.031Z"/><path class="cls-9" d="M94.9688,600.906c-.054-.182,.0475,.999,.3437,4.25,19.9345,218.824,203.9185,390.25,427.9375,390.25,.901,0,1.788-.057,2.688-.062-164.03-23.93-297.742-138.322-346.282-289.563-37.134-8.68-65.58-31.547-80.656-83.531-2.2548-7.775-3.8694-20.798-4.0312-21.344Z"/><path class="cls-8" d="M925.375,414.156c24.11,73.661-31.536,175.18-161.687,250.532-134.351,77.781-282.855,28.272-403.063,35.343-68.282,4.017-132.137,17.164-180.969,5.75,48.54,151.241,182.252,265.633,346.282,289.563,236.088-1.453,427.062-193.226,427.062-429.656,0-53.362-9.849-104.389-27.625-151.532Z"/></g></g></svg>