<svg class="logo" xmlns="http://www.w3.org/2000/svg" viewBox="0 0 512 512">
    <defs>
        <style>.b{mix-blend-mode:multiply;opacity:.3}.c{fill:#7171f4}.d{fill:#fff}.e{fill:#fdd353}.g{fill:#94e6ed}
        </style>
    </defs>
    <g style="isolation:isolate">
        <path class="c"
              d="M373.72 451.45c-17.39 1.34-18.87-14.92-15.54-32.49 2.13-10.07 1.28-32.98.95-43.24-5.3-42.9-47.53-122.94-40.54-165.51 5.16-31.41-5.04-45.03-15.45-55.27-21.66-21.3-36.72-25.33-68.32-25.54-8.14.35-17.84 4.98-24.03 10.14-24.01 1.74-44.57 17.21-51.51 40.81-1.83 13.89 13.06 7.67 21.04 8.01 13.41.14 26.25 3.75 37.09 12.31 0 .09 0 .09.09.09 15.4 14.84 15.43 41.49 0 56.27a130.932 130.932 0 0 0-17.64 21.94l-.01.02a128.09 128.09 0 0 0-18.16 46.03v.01a129.663 129.663 0 0 0-2.16 23.63c.53 43.83 13.95 63.22 37.97 91.72.65.49 1.41 1.61.26 2.08-27.98 15.15-36.11 38.08 4.91 38.54h86.62c15.6.55 15.14-13.04 18.43-24.81 4-4.19 8.02-5.88 11.89.05 10.02 7.85 19.21 9.87 34.11 9.81 9.57-.01 9.46-14.6 0-14.6ZM213.19 170.34q-.045.69-.12 1.35c-.02.24-.05.47-.07.69a47.18 47.18 0 0 1-.48 3.07c-.07.39-.14.77-.22 1.13-.37 1.78-.76 3.24-1.06 4.19a.169.169 0 0 0-.02.05 1.055 1.055 0 0 1-.05.19.3.3 0 0 1-.04.08.142.142 0 0 1-.02.06.89.89 0 0 1-1.14.43c-2.13-.87-6.44-1.62-11.19-2.17-.74-.09-1.48-.17-2.23-.24-1.32-.14-2.64-.25-3.95-.35l-1.25-.09c-1.72-.12-3.38-.21-4.89-.26-1.12-.04-2.17-.06-3.11-.06-.76 0-1.45.01-2.04.04q-.72.03-1.26.09a5.736 5.736 0 0 0-.86.15c-.24.06-.47.12-.69.17-.23.06-.45.11-.67.15a12.098 12.098 0 0 1-1.3.24c-.31.05-.62.09-.92.11-2.36.17-3.59-.47-3.94-1.67-.5-1.7.75-4.5 3.05-7.7.01-.01.01-.02.02-.03a68.462 68.462 0 0 1 18.41-16.77c.04-.03.09-.05.13-.08 4.56-2.69 8.78-4.02 11.39-2.69.01.01.03.01.04.02.2.1.39.21.58.32.14.08.28.16.41.24a7.567 7.567 0 0 1 .66.44c.11.07.22.16.33.24.13.09.26.18.38.28.18.13.34.27.51.42.16.15.32.29.48.44a11.326 11.326 0 0 1 1.29 1.4c.28.35.55.71.79 1.08a7.056 7.056 0 0 1 .6.97 12.102 12.102 0 0 1 .76 1.53c.11.23.2.46.29.69q.12.285.21.57c.14.39.26.78.37 1.18a5.687 5.687 0 0 1 .16.59 22.424 22.424 0 0 1 .56 3.03q.075.615.12 1.23c.03.41.05.82.07 1.23a35.644 35.644 0 0 1-.09 4.02Zm30.52-15.4c9.51.03 9.52 14.51 0 14.6-9.4-.11-9.38-14.55 0-14.6Zm4.76 279.24c-27.48-4.67-41.45-33.14-48.51-56.85-8.57-27.57-8.68-52.48 13.11-88.27l12.32-17.34c6.22-8.7 22.41-24 27.49-8.19 2.94 17.58 3.98 39.82 13.81 56.19a186.024 186.024 0 0 1 10.16 18.65c13.09 27.28 19.77 68.13 21.74 93.04.83 8.98-42.62 5.19-50.12 2.77Z"/>
        <path class="d"
              d="M248.47 434.18c-27.48-4.67-41.45-33.14-48.51-56.85-8.57-27.57-8.68-52.48 13.11-88.27l12.32-17.34c6.22-8.7 22.41-24 27.49-8.19 2.94 17.58 3.98 39.82 13.81 56.19a186.024 186.024 0 0 1 10.16 18.65c13.09 27.28 19.77 68.13 21.74 93.04.83 8.98-42.62 5.19-50.12 2.77ZM243.71 169.54c-9.4-.11-9.38-14.55 0-14.6 9.51.03 9.52 14.51 0 14.6Z"/>
        <path class="e"
              d="M204.784 150.457c-9.556-3.078-33.577 17.059-33.139 28.227.702 1.055 3.945.967 7.54 0 3.507-.968 27.703.703 31.649 3.341 0 0 8.504-23.742-6.05-31.568Z"/>
        <path class="c"
              d="M474.76 223.252h-40.43a200.304 200.304 0 0 0-7.207-27.251l35.156-20.306a6.115 6.115 0 0 0 2.285-8.439l-26.982-46.767a6.267 6.267 0 0 0-8.437-2.285l-35.157 20.306a192.734 192.734 0 0 0-19.775-19.955l20.303-35.25a6.218 6.218 0 0 0-2.286-8.527l-46.669-26.9a6.216 6.216 0 0 0-8.526 2.286L316.82 85.239a167.116 167.116 0 0 0-27.158-7.297v-40.7a6.264 6.264 0 0 0-6.24-6.242h-53.877a6.264 6.264 0 0 0-6.24 6.241v40.525a180.126 180.126 0 0 0-27.246 7.209l-20.303-35.25a6.245 6.245 0 0 0-8.526-2.198l-46.669 26.9a6.295 6.295 0 0 0-2.286 8.526l20.303 35.075a177.335 177.335 0 0 0-19.951 19.868l-35.244-20.308a6.195 6.195 0 0 0-8.526 2.286l-26.982 46.678a6.376 6.376 0 0 0 2.285 8.527l35.069 20.219a174.233 174.233 0 0 0-7.383 27.163H37.24a6.265 6.265 0 0 0-6.24 6.241v53.887a6.265 6.265 0 0 0 6.24 6.242h40.43a177.52 177.52 0 0 0 7.207 27.251l-35.156 20.306a6.116 6.116 0 0 0-2.285 8.439l26.982 46.767a6.162 6.162 0 0 0 8.438 2.198l35.068-20.131a193.584 193.584 0 0 0 19.863 19.955l-20.215 35.075a6.196 6.196 0 0 0 2.285 8.526l46.67 26.988a6.374 6.374 0 0 0 8.526-2.286l18.808-24.702c-15.293-23.383-24.257-39.03-31.289-80.786-12.744-12.746-27.422-29.8-34.365-46.327a138.55 138.55 0 0 1 29.707-152.079 140.227 140.227 0 0 1 44.121-29.8 138.846 138.846 0 0 1 181.846 181.879c-6.592 16.966-10.547 23.999-17.842 34.723l7.91 55.733c7.119-6.065 13.535-19.163 19.6-26.284l35.156 20.307a6.373 6.373 0 0 0 8.525-2.286l26.895-46.678a6.197 6.197 0 0 0-2.285-8.527l-34.981-20.219a168.249 168.249 0 0 0 7.295-27.251h40.606a6.247 6.247 0 0 0 6.24-6.154v-53.974a6.265 6.265 0 0 0-6.24-6.242Z"/>
        <path class="c"
              d="m199.86 278.97-18.17 46.06s-18.91 3.59-39.62-7.89l3.89-15.03c23.76-7.01 53.9-23.14 53.9-23.14Z"/>
        <path class="c"
              d="M59.104 371.451a3.817 3.817 0 0 0-.784-.376c-6.624-1.487-10.59-6.025-11.1-12.853q-1.751-23.447-3.416-46.9c-.09-1.263-.23-1.582-1.648-1.227a8.029 8.029 0 0 1-10.023-7.227c-.355-3.474-.544-6.965-.787-10.45-.549-7.862-1.32-15.717-1.568-23.589-.334-10.633 7.567-20.647 17.876-23.187a16.991 16.991 0 0 1 3.957-.682 3.433 3.433 0 0 0 3.126-1.92 23.947 23.947 0 0 1 34.247-5.873 1.692 1.692 0 0 0 1.91.292 13.218 13.218 0 0 1 15.036 3.56 1.327 1.327 0 0 0 1.756.5 13.396 13.396 0 0 1 14.21 21.991 2.478 2.478 0 0 0-.603 1.613c.064 2.013.323 4.02.382 6.032.03 1.006.414 1.115 1.291 1.04 3.882-.33 7.77-.595 11.656-.872 8.05-.573 14.281 4.535 14.93 12.59q1.83 22.698 3.328 45.423c.532 8.06-4.89 14.03-12.935 14.635-3.84.29-7.679.618-11.525.813-1.168.06-1.35.439-1.243 1.506.247 2.448.45 4.91.488 7.37a13.175 13.175 0 0 1-10.154 13.268c-.095.025-.158.173-.237.263Zm52.32-17.307c.272-2.004 1.042-2.762 3.002-2.916 2.01-.158 4.019-.38 6.03-.414 1.305-.023 1.681-.351 1.576-1.756q-3.02-40.195-5.926-80.398a4.38 4.38 0 0 1-.036-.536c.045-.871-.225-1.15-1.175-.927a9.686 9.686 0 0 1-3.189.263c-1.143-.123-1.334.194-1.247 1.263.466 5.713.86 11.433 1.277 17.15a7.834 7.834 0 0 1-3.642 7.705 1.952 1.952 0 0 0-1.046 2.132q1.541 20.432 3.01 40.87a10.687 10.687 0 0 1 .038 1.741 2.573 2.573 0 0 1-2.716 2.406c-1.588-.02-2.513-1.118-2.67-3.228q-1.16-15.745-2.308-31.49c-.252-3.44-.488-6.88-.778-10.316-.035-.413-.27-1.037-.576-1.163-3.855-1.576-5.335-4.578-5.532-8.557-.192-3.889-.563-7.77-.946-11.647a4.597 4.597 0 0 0-3.786-4.332 39.242 39.242 0 0 0-4.513-.496 2.658 2.658 0 0 0-2.316 1.042 15.697 15.697 0 0 1-13.448 5.008 16.11 16.11 0 0 1-8.55-3.542c-1.252-.974-1.476-.88-2.142.479a18.27 18.27 0 0 1-11.443 9.861c-1.03.315-1.277.703-1.2 1.741q2.622 35.172 5.147 70.352c.084 1.169.458 1.33 1.521 1.248q19.024-1.449 38.055-2.81c2.097-.153 2.95.446 3.532 2.438-.293 2.057-1.05 2.773-3.14 2.927q-18.894 1.389-37.788 2.75c-1.083.077-1.23.342-.624 1.208a8.034 8.034 0 0 0 7.577 3.682q11.19-.8 22.377-1.635c10.317-.756 20.636-1.496 30.952-2.277a7.956 7.956 0 0 0 6.832-4.722c.426-.847.443-1.272-.748-1.139-2.001.223-4.017.323-6.027.46-1.974.135-2.848-.494-3.414-2.425Zm-75.198-68.877.068.938c.39 5.315.763 10.63 1.179 15.943a2.72 2.72 0 0 0 2.94 2.793 2.821 2.821 0 0 0 2.655-3.102c0-.491-.059-.983-.095-1.474-.467-6.387-.945-12.773-1.396-19.16-.157-2.226.701-3.222 2.903-3.519a13.695 13.695 0 0 0 1.714-.304 13.213 13.213 0 0 0 9.013-7.77 5.499 5.499 0 0 1 5.563-3.623 8.535 8.535 0 0 1 4.867 2.016 10.531 10.531 0 0 0 14.344-1.13 7.58 7.58 0 0 1 6.125-2.756 34.638 34.638 0 0 1 4.412.281c4.752.782 8.095 3.312 9.198 8.157a46.423 46.423 0 0 1 .71 6.264c.233 2.677.366 5.362.614 8.037a2.656 2.656 0 0 0 3.427 2.57c1.348-.368 2-1.537 1.863-3.428q-.75-10.385-1.516-20.768a11.373 11.373 0 0 1-.06-1.474 2.628 2.628 0 0 1 3.484-2.454c.686.195 1.353.47 2.048.623a8.273 8.273 0 0 0 9.265-4.287 8.036 8.036 0 0 0-11.857-10.12c-2.031 1.33-3.453.967-4.598-1.176a7.995 7.995 0 0 0-11.203-3.412c-2.349 1.372-2.816 1.33-4.837-.43a18.637 18.637 0 0 0-29.012 5.464 3.68 3.68 0 0 1-3.687 2.271 18.718 18.718 0 0 0-19.195 20.425c.325 4.87.708 9.737 1.064 14.605Zm109.647 21.788c-.225-3.082-.444-6.165-.678-9.247-.368-4.822-.614-9.659-1.161-14.461a7.746 7.746 0 0 0-8.12-6.696c-4.292.23-8.576.622-12.867.896-.742.048-.884.327-.812.987.122 1.113.228 2.232.239 3.35.009.862.275 1.121 1.175 1.043 3.837-.333 7.681-.587 11.523-.865 2.56-.186 3.545.642 3.733 3.197q1.634 22.177 3.248 44.356c.18 2.474-.695 3.463-3.153 3.646-3.886.288-7.771.595-11.66.835-.833.051-1.078.302-.96 1.12a17.967 17.967 0 0 1 .213 2.945c-.023 1.081.285 1.432 1.452 1.32 3.7-.359 7.412-.575 11.12-.848 5.743-.422 8.732-3.867 8.316-9.601q-.796-10.99-1.608-21.977Zm-10.721.748c-.468-6.384-.952-12.766-1.383-19.152-.058-.859-.28-1.112-1.17-1.028-2.896.272-5.8.474-8.704.642-.771.044-.937.289-.88 1.04q1.447 19.281 2.825 38.568c.053.752.254.969 1.023.9 2.853-.254 5.71-.489 8.57-.617 1.027-.047 1.217-.354 1.137-1.338-.513-6.335-.954-12.676-1.418-19.015Z"/>
        <path class="e"
              d="M95.427 355.315c-.582-1.992-1.435-2.59-3.532-2.438q-19.028 1.39-38.055 2.81c-1.063.081-1.437-.08-1.52-1.248q-2.519-35.18-5.148-70.352c-.077-1.038.169-1.425 1.2-1.74a18.27 18.27 0 0 0 11.443-9.862c.666-1.359.89-1.453 2.141-.48a16.11 16.11 0 0 0 8.55 3.543 15.697 15.697 0 0 0 13.45-5.008 2.658 2.658 0 0 1 2.315-1.042 39.242 39.242 0 0 1 4.513.496 4.597 4.597 0 0 1 3.786 4.332c.384 3.876.754 7.758.947 11.647.197 3.979 1.676 6.981 5.531 8.557.307.126.542.75.576 1.163.29 3.436.526 6.876.778 10.316q1.153 15.745 2.31 31.49c.155 2.11 1.08 3.208 2.668 3.228a2.573 2.573 0 0 0 2.716-2.406 10.687 10.687 0 0 0-.038-1.741q-1.49-20.436-3.01-40.87a1.952 1.952 0 0 1 1.046-2.132 7.834 7.834 0 0 0 3.643-7.705c-.417-5.717-.812-11.437-1.277-17.15-.087-1.07.103-1.386 1.246-1.263a9.686 9.686 0 0 0 3.19-.263c.95-.224 1.22.056 1.174.927a4.38 4.38 0 0 0 .036.536q2.945 40.2 5.926 80.398c.105 1.405-.27 1.733-1.575 1.756-2.012.034-4.022.256-6.03.414-1.96.154-2.73.912-3.003 2.916l-5.278.383c-.405-1.822-1.462-2.786-2.932-2.679s-2.378 1.22-2.51 3.077Zm-35.434-39.592q.897 12.254 1.8 24.508a9.481 9.481 0 0 0 .233 1.724 2.557 2.557 0 0 0 2.722 1.91c1.702-.116 2.62-1.36 2.468-3.46q-1.816-24.979-3.658-49.955c-.153-2.07-1.275-3.242-2.92-3.133-1.64.108-2.587 1.448-2.469 3.495.018.313.045.625.068.938Zm26.847-1.83-1.806-24.642c-.177-2.407-1.233-3.641-2.98-3.503-1.743.138-2.585 1.504-2.408 3.925q1.798 24.576 3.603 49.151a8.669 8.669 0 0 0 .194 1.46 2.572 2.572 0 0 0 2.914 1.991c1.618-.193 2.451-1.411 2.303-3.47q-.897-12.457-1.82-24.912Z"/>
        <path d="M36.226 285.267c-.356-4.868-.74-9.734-1.064-14.605a18.718 18.718 0 0 1 19.195-20.425 3.68 3.68 0 0 0 3.687-2.272 18.637 18.637 0 0 1 29.012-5.463c2.02 1.76 2.488 1.802 4.837.43a7.995 7.995 0 0 1 11.202 3.412c1.146 2.142 2.567 2.506 4.598 1.175a8.036 8.036 0 0 1 11.858 10.12 8.273 8.273 0 0 1-9.265 4.288c-.695-.153-1.362-.428-2.049-.624a2.628 2.628 0 0 0-3.483 2.455 11.373 11.373 0 0 0 .06 1.474L106.33 286c.136 1.89-.516 3.06-1.863 3.429a2.656 2.656 0 0 1-3.428-2.571c-.247-2.675-.38-5.36-.613-8.037a46.423 46.423 0 0 0-.71-6.265c-1.103-4.844-4.446-7.374-9.198-8.156a34.638 34.638 0 0 0-4.412-.281 7.58 7.58 0 0 0-6.125 2.755 10.531 10.531 0 0 1-14.344 1.131 8.535 8.535 0 0 0-4.867-2.016 5.499 5.499 0 0 0-5.563 3.623 13.213 13.213 0 0 1-9.013 7.77 13.695 13.695 0 0 1-1.714.304c-2.202.297-3.06 1.292-2.903 3.519.45 6.387.93 12.773 1.396 19.16.036.49.094.982.095 1.474a2.821 2.821 0 0 1-2.656 3.102 2.72 2.72 0 0 1-2.94-2.793c-.415-5.312-.788-10.628-1.178-15.943l-.068-.938Z"
              style="fill:#fde3ca"/>
        <path class="g"
              d="m145.873 307.055 1.609 21.977c.415 5.734-2.574 9.18-8.317 9.602-3.707.272-7.42.489-11.12.846-1.167.113-1.475-.238-1.452-1.319a17.967 17.967 0 0 0-.212-2.945c-.119-.818.126-1.069.959-1.12 3.889-.24 7.774-.546 11.66-.835 2.458-.183 3.333-1.172 3.153-3.646q-1.612-22.179-3.247-44.356c-.189-2.555-1.174-3.383-3.734-3.197-3.842.278-7.686.532-11.523.865-.9.078-1.166-.18-1.175-1.043-.011-1.118-.117-2.237-.239-3.35-.072-.66.07-.94.813-.987 4.29-.274 8.574-.666 12.867-.896a7.746 7.746 0 0 1 8.119 6.696c.547 4.802.793 9.64 1.16 14.462.235 3.081.454 6.164.68 9.246ZM95.427 355.315l5.276-.39c.65 1.692 1.46 2.339 2.836 2.265 1.437-.077 2.197-.854 2.607-2.663l5.278-.383c.566 1.931 1.44 2.56 3.414 2.425 2.01-.137 4.026-.237 6.027-.46 1.19-.132 1.174.292.748 1.14a7.956 7.956 0 0 1-6.832 4.722c-10.316.78-20.635 1.52-30.952 2.276q-11.189.82-22.377 1.635a8.034 8.034 0 0 1-7.577-3.682c-.607-.865-.46-1.131.624-1.208q18.896-1.339 37.787-2.75c2.091-.154 2.848-.87 3.141-2.927Z"/>
        <path class="c"
              d="m59.993 315.723-1.756-23.973c-.023-.313-.05-.625-.068-.938-.118-2.047.83-3.387 2.47-3.495 1.643-.108 2.766 1.064 2.919 3.133q1.84 24.977 3.658 49.955c.153 2.1-.766 3.344-2.468 3.46a2.557 2.557 0 0 1-2.722-1.91 9.481 9.481 0 0 1-.234-1.724q-.907-12.253-1.8-24.508ZM86.84 313.893q.912 12.456 1.82 24.911c.148 2.06-.685 3.278-2.303 3.471a2.572 2.572 0 0 1-2.914-1.99 8.669 8.669 0 0 1-.194-1.46q-1.806-24.576-3.603-49.152c-.177-2.42.665-3.787 2.408-3.925 1.747-.138 2.803 1.096 2.98 3.503q.906 12.32 1.806 24.642ZM106.146 354.527c-.41 1.81-1.17 2.585-2.607 2.663-1.376.074-2.186-.573-2.836-2.265.132-1.856 1.04-2.969 2.51-3.077s2.527.857 2.933 2.679ZM137.213 318.755l-2.128-15.38a72.133 72.133 0 0 1 19.171 5.005c-4.9 1.522-10.845 5.388-17.043 10.375Z"/>
    </g>
</svg>